<svg xmlns="http://www.w3.org/2000/svg" width="1400" height="820" viewBox="0 0 1400 820" role="img" aria-label="Gaurav Kumar terminal profile">
<style>
  .page { fill: #ffffff; }
  .card { fill: #f6f8fa; stroke: #d0d7de; stroke-width: 2; }
  text {
    font-family: "DejaVu Sans Mono", "Courier New", monospace;
    font-weight: 600;
  }
  .ascii { fill: #24292f; font-size: 17px; }
  .info { font-size: 17px; }
  .fg { fill: #24292f; }
  .muted { fill: #57606a; }
  .label { fill: #bc4c00; }
  .value { fill: #0969da; }
  .green { fill: #1a7f37; }
  .purple { fill: #8250df; }
  .yellow { fill: #9a6700; }
  .project { fill: #cf222e; }
</style>
<rect class="page" width="100%" height="100%"/>
<rect class="card" x="18" y="18" width="1364" height="784" rx="22"/>
<text x="45" y="68" class="ascii">%%##**++==----::::.......::::---==++**##%%</text><text x="45" y="89" class="ascii">%##*++==--:::.... .:-=-:.....:::--==++**##</text><text x="45" y="110" class="ascii">#**++=--::....  .=#%@@@#*+-. ...::--==++*#</text><text x="45" y="131" class="ascii">**+==--::..    -#@@@@@@@@@#-   ...::-==++*</text><text x="45" y="152" class="ascii">*+==--:...    =@@*===++**%@*:    ..::-==++</text><text x="45" y="173" class="ascii">++=--:...    .*%+=++==***+=*=     ..::-==+</text><text x="45" y="194" class="ascii">+==-::..     .=++*@%=+@@%#---      ..:--=+</text><text x="45" y="215" class="ascii">+=--:..      .=--=+=:-+*+=-::.     ..::-==</text><text x="45" y="236" class="ascii">+=--:..      .=::=-+#%#+==:.=.     ..::-==</text><text x="45" y="257" class="ascii">+=--:..       :-+*==+*#*#*:.:.     ..::-==</text><text x="45" y="278" class="ascii">+==-::..       .=+==*##**=..       ..:--=+</text><text x="45" y="299" class="ascii">++=--::..       .-+*#%%*+-.       ..::-==+</text><text x="45" y="320" class="ascii">*++=--::..       .-*@@@%#+:..     .::--=++</text><text x="45" y="341" class="ascii">**++=--::...      -+*%%%%%#*+=*-:----==++*</text><text x="45" y="362" class="ascii">##*++==--::...=++*+=++*#@@@@@@%#*#**%%%###</text><text x="45" y="383" class="ascii">%##**++==--:::*%@%+++++**##@@%%%##%@@%%@@@</text><text x="45" y="404" class="ascii">%%%##**++==---+#%-----+%@@@@@@%%%@@@@@@@@@</text><text x="45" y="425" class="ascii">@@%%###**++*#@%%%*----+@@@@@@@@@@@@@@@@@@@</text><text x="45" y="446" class="ascii">@@@@%%%###@@@@@@@@#+=+%@@@@@@@@@@@@@@@@@@@</text><text x="45" y="467" class="ascii">@@@@@@@%@@@@@@@@@@%**#@@@@@@@@@@@@@@@@@@@@</text><text x="45" y="488" class="ascii">@@@@@@@@@@@@@@@@@@@##@@@@@@@@@@@@@@@@@@@@@</text>
<text x="545.0" y="54" class="info green">gaurav@github</text><text x="678.2" y="54" class="info muted">  ---------------------------------------------</text><text x="545.0" y="98" class="info label">OS</text><text x="565.5" y="98" class="info muted">: </text><text x="586.0" y="98" class="info value">macOS | Linux</text><text x="545.0" y="120" class="info label">Host</text><text x="586.0" y="120" class="info muted">: </text><text x="606.5" y="120" class="info value">IIT Bombay</text><text x="545.0" y="142" class="info label">Role</text><text x="586.0" y="142" class="info muted">: </text><text x="606.5" y="142" class="info value">ML Researcher | Python Engineer</text><text x="545.0" y="164" class="info label">Focus</text><text x="596.2" y="164" class="info muted">: </text><text x="616.8" y="164" class="info value">LLM Systems | Retrieval | Reranking</text><text x="545.0" y="186" class="info label">IDE</text><text x="575.8" y="186" class="info muted">: </text><text x="596.2" y="186" class="info value">VS Code | Jupyter | Colab</text><text x="545.0" y="208" class="info label">Shell</text><text x="596.2" y="208" class="info muted">: </text><text x="616.8" y="208" class="info value">zsh | bash</text><text x="545.0" y="252" class="info label">Languages.Programming</text><text x="760.2" y="252" class="info muted">: </text><text x="780.8" y="252" class="info value">Python | C++ | C</text><text x="545.0" y="274" class="info label">Python.Libraries</text><text x="709.0" y="274" class="info muted">: </text><text x="729.5" y="274" class="info value">PyTorch | Transformers | NumPy | Pandas</text><text x="545.0" y="296" class="info label">Retrieval.Stack</text><text x="698.8" y="296" class="info muted">: </text><text x="719.2" y="296" class="info value">FAISS | BM25 | Sentence Transformers</text><text x="545.0" y="318" class="info label">MLOps.Tools</text><text x="657.8" y="318" class="info muted">: </text><text x="678.2" y="318" class="info value">Docker | MLflow | Kubernetes | AWS</text><text x="545.0" y="340" class="info label">Domains</text><text x="616.8" y="340" class="info muted">: </text><text x="637.2" y="340" class="info value">NLP | IR | Graph QA | Long Context</text><text x="545.0" y="384" class="info label">Research</text><text x="627.0" y="384" class="info muted">  ---------------------------------------------------</text><text x="545.0" y="406" class="info label">Paper</text><text x="596.2" y="406" class="info muted">: </text><text x="616.8" y="406" class="info purple">ACL Findings 2026</text><text x="545.0" y="428" class="info label">Topic</text><text x="596.2" y="428" class="info muted">: </text><text x="616.8" y="428" class="info value">Position-corrected attention reranking</text><text x="545.0" y="450" class="info label">Latency</text><text x="616.8" y="450" class="info muted">: </text><text x="637.2" y="450" class="info green">5-6x faster than sliding-window RankGPT</text><text x="545.0" y="494" class="info label">Projects</text><text x="627.0" y="494" class="info muted">  ---------------------------------------------------</text><text x="545.0" y="516" class="info project">ToolLens</text><text x="627.0" y="516" class="info muted">: </text><text x="647.5" y="516" class="info value">Attention-aware tool routing</text><text x="545.0" y="538" class="info project">Attention-Graph-Walk</text><text x="750.0" y="538" class="info muted">: </text><text x="770.5" y="538" class="info value">Multi-hop retrieval</text><text x="545.0" y="560" class="info project">Graph Retrieval QA</text><text x="729.5" y="560" class="info muted">: </text><text x="750.0" y="560" class="info green">0.95 MRR on 2WikiMultihopQA</text><text x="545.0" y="582" class="info project">BERT Bottleneck</text><text x="698.8" y="582" class="info muted">: </text><text x="719.2" y="582" class="info green">51% -&gt; 93.7% under 768d -&gt; 8d</text><text x="545.0" y="626" class="info label">Achievements</text><text x="668.0" y="626" class="info muted">  -----------------------------------------------</text><text x="545.0" y="648" class="info label">GATE CS</text><text x="616.8" y="648" class="info muted">: </text><text x="637.2" y="648" class="info yellow">AIR 148 | Score 841/1000</text><text x="545.0" y="670" class="info label">Teaching</text><text x="627.0" y="670" class="info muted">: </text><text x="647.5" y="670" class="info value">AI/ML | Probabilistic AI | Programming</text><text x="545.0" y="714" class="info label">Contact</text><text x="616.8" y="714" class="info muted">  ----------------------------------------------------</text><text x="545.0" y="736" class="info label">Email</text><text x="596.2" y="736" class="info muted">: </text><text x="616.8" y="736" class="info value">gauravkumar81437@gmail.com</text><text x="545.0" y="758" class="info label">LinkedIn</text><text x="627.0" y="758" class="info muted">: </text><text x="647.5" y="758" class="info value">linkedin.com/in/connectgaurav</text><text x="545.0" y="780" class="info label">GitHub</text><text x="606.5" y="780" class="info muted">: </text><text x="627.0" y="780" class="info value">github.com/gaurav-kumar-git</text>
</svg>
